<svg width="22" height="22" viewBox="0 0 22 22" fill="none" xmlns="http://www.w3.org/2000/svg">
<path d="M20 6L5.81997 20.18C5.28843 20.7057 4.57048 20.9997 3.82291 20.9978C3.07534 20.9959 2.35887 20.6983 1.82997 20.17C1.29993 19.6394 1.0022 18.92 1.0022 18.17C1.0022 17.42 1.29993 16.7006 1.82997 16.17L16 2M15 1L21 7M11 15H3M18.5 21C19.163 21 19.7989 20.7283 20.2678 20.2446C20.7366 19.761 21 19.105 21 18.4211C21 17.6842 20.6429 16.9842 19.9286 16.3947C19.2143 15.8053 18.6786 14.9211 18.5 14C18.3214 14.9211 17.7857 15.8053 17.0714 16.3947C16.3571 16.9842 16 17.6842 16 18.4211C16 19.105 16.2634 19.761 16.7322 20.2446C17.2011 20.7283 17.837 21 18.5 21Z" stroke="#616161" stroke-width="1.5" stroke-linecap="round" stroke-linejoin="round"/>
</svg>
